<?xml version="1.0" standalone="no"?>
<!DOCTYPE svg PUBLIC "-//W3C//DTD SVG 20010904//EN"
 "http://www.w3.org/TR/2001/REC-SVG-20010904/DTD/svg10.dtd">
<svg version="1.0" xmlns="http://www.w3.org/2000/svg"
 width="1080.000000pt" height="1920.000000pt" viewBox="0 0 1080.000000 1920.000000"
 preserveAspectRatio="xMidYMid meet">
<metadata>
Created by potrace 1.16, written by Peter Selinger 2001-2019
</metadata>
<g transform="translate(0.000000,1920.000000) scale(0.100000,-0.100000)"
fill="#000000" stroke="none">
<path d="M0 9600 l0 -9600 5400 0 5400 0 0 9600 0 9600 -5400 0 -5400 0 0
-9600z m5405 9260 c7 -8 16 -25 19 -36 4 -12 15 -29 26 -39 11 -10 20 -23 20
-29 0 -6 7 -24 16 -41 9 -16 31 -70 50 -119 20 -49 42 -95 50 -103 8 -8 14
-24 14 -36 0 -12 9 -36 19 -53 10 -17 22 -44 25 -61 4 -17 16 -48 27 -69 10
-21 19 -43 19 -49 0 -6 15 -42 34 -81 19 -38 39 -87 45 -109 6 -22 18 -49 26
-59 8 -11 15 -26 15 -34 0 -12 12 -41 71 -168 11 -22 19 -50 19 -61 0 -11 7
-26 15 -33 8 -7 17 -28 21 -49 3 -20 12 -46 20 -58 8 -12 14 -28 14 -34 0 -7
16 -44 35 -84 32 -66 39 -74 84 -94 27 -11 56 -21 63 -21 7 0 26 -7 42 -15 16
-8 79 -29 140 -47 61 -17 123 -37 138 -45 15 -7 40 -13 55 -13 15 0 57 -7 93
-15 36 -8 103 -22 149 -31 47 -8 93 -20 102 -25 10 -5 53 -12 96 -15 43 -4 90
-13 104 -20 15 -7 54 -18 89 -23 34 -6 67 -14 73 -19 7 -5 41 -14 76 -21 41
-7 71 -18 83 -31 10 -11 25 -20 34 -20 8 0 17 -6 20 -13 6 -16 -10 -62 -29
-83 -6 -7 -20 -24 -29 -36 -9 -13 -40 -51 -67 -85 -28 -34 -51 -67 -51 -73 0
-6 -7 -13 -15 -16 -8 -4 -15 -10 -15 -16 0 -11 -60 -90 -77 -101 -7 -4 -13
-13 -13 -18 0 -6 -9 -23 -21 -37 -72 -94 -109 -146 -109 -156 0 -6 -15 -27
-33 -46 -17 -19 -45 -53 -61 -75 -16 -22 -35 -47 -43 -55 -45 -52 -73 -91 -97
-131 -14 -25 -35 -54 -46 -64 -11 -10 -20 -23 -20 -29 0 -6 -17 -27 -36 -46
-19 -19 -48 -57 -64 -85 -16 -27 -43 -65 -59 -83 -17 -18 -31 -36 -31 -39 0
-3 -12 -19 -26 -36 -24 -29 -25 -34 -19 -106 4 -42 14 -89 22 -106 8 -17 18
-81 23 -145 5 -63 13 -128 19 -143 6 -16 11 -49 11 -75 0 -91 13 -182 25 -182
6 0 12 -6 13 -12 0 -7 3 -74 7 -148 3 -74 13 -164 20 -200 8 -36 17 -105 20
-154 3 -49 12 -117 21 -150 16 -61 32 -261 26 -323 -2 -20 -9 -33 -17 -33 -8
0 -20 -12 -27 -27 -11 -23 -19 -27 -43 -25 -17 2 -39 13 -50 26 -11 12 -32 27
-46 33 -15 6 -42 24 -60 40 -19 16 -59 42 -89 57 -30 16 -66 39 -80 52 -14 13
-45 30 -70 39 -25 9 -61 31 -80 49 -19 18 -64 47 -100 65 -36 18 -78 45 -95
61 -16 15 -48 37 -70 47 -46 22 -84 43 -105 59 -8 6 -32 17 -52 24 -21 6 -38
15 -38 19 0 4 -15 15 -32 24 -48 25 -98 57 -164 102 -31 22 -67 46 -80 53 -25
14 -54 7 -54 -14 0 -7 -12 -17 -27 -20 -16 -4 -41 -17 -58 -29 -16 -12 -48
-30 -70 -40 -22 -10 -53 -29 -68 -41 -16 -13 -33 -24 -38 -24 -9 0 -68 -38
-79 -51 -3 -3 -35 -23 -72 -43 -38 -21 -68 -42 -68 -47 0 -5 -10 -13 -22 -18
-13 -5 -74 -43 -137 -85 -62 -42 -117 -76 -122 -76 -5 0 -19 -10 -31 -22 -24
-24 -157 -108 -171 -108 -5 0 -22 -10 -37 -22 -61 -49 -75 -58 -90 -58 -9 0
-27 -11 -40 -25 -13 -14 -31 -25 -40 -25 -8 0 -25 -6 -36 -14 -31 -22 -78 -24
-82 -4 -2 10 3 25 12 33 13 13 13 21 -1 70 -12 42 -13 61 -5 78 21 44 49 303
62 585 6 112 14 211 19 220 4 9 14 54 21 100 12 78 10 125 -5 165 -5 13 -2 17
13 17 28 0 32 16 41 197 5 87 9 163 11 168 6 24 -1 45 -15 45 -10 0 -15 10
-15 30 0 34 6 37 32 13 17 -15 18 -14 18 15 0 18 -4 32 -10 32 -5 0 -19 19
-31 41 -11 23 -41 62 -65 87 -24 24 -44 52 -44 62 0 9 -14 35 -31 56 -17 22
-42 55 -55 74 -13 19 -37 54 -54 78 -16 23 -30 47 -30 51 0 5 -10 15 -22 24
-13 8 -34 37 -48 63 -14 27 -41 69 -60 94 -20 25 -49 65 -65 90 -16 25 -44 63
-62 86 -18 23 -33 46 -33 51 0 6 -12 27 -27 46 -16 20 -46 62 -68 93 -22 31
-48 63 -58 72 -10 10 -24 31 -31 47 -7 17 -27 45 -45 62 -17 17 -31 42 -31 55
0 13 -18 41 -42 67 l-42 44 22 17 c21 17 21 18 2 35 -25 22 -26 61 -2 73 9 6
42 13 72 17 30 4 74 15 97 25 24 10 64 22 90 26 27 3 55 12 63 19 14 11 202
53 280 62 19 3 49 10 65 18 17 7 50 16 75 19 25 4 86 16 135 26 50 10 113 23
140 29 28 5 68 14 90 20 22 5 74 14 116 19 92 12 129 33 129 73 0 16 9 38 20
49 11 11 23 32 26 47 4 16 33 82 64 148 92 193 110 233 110 244 0 6 16 34 36
62 19 28 38 67 41 88 3 20 14 44 24 54 11 10 19 24 19 32 0 8 10 23 22 34 14
14 22 35 24 63 1 24 15 66 30 93 15 28 33 61 40 75 8 14 14 30 14 37 0 6 6 18
13 25 15 16 49 96 89 208 17 47 34 90 38 95 4 6 13 27 19 47 7 21 27 53 44 72
l31 33 14 -26 c7 -14 19 -33 27 -41z m710 -5581 c66 -5 124 -14 130 -18 5 -5
60 -11 122 -14 64 -3 121 -11 135 -19 13 -7 70 -16 128 -20 58 -3 130 -11 160
-16 30 -6 102 -17 159 -26 57 -9 110 -21 117 -27 7 -6 46 -15 86 -20 40 -5 82
-13 93 -17 22 -10 168 -40 260 -54 33 -4 89 -17 125 -28 149 -44 207 -59 250
-66 25 -3 55 -12 67 -20 12 -8 30 -14 38 -14 9 0 46 -12 82 -26 35 -14 82 -27
104 -27 21 -1 39 -6 39 -12 0 -5 16 -27 35 -49 19 -21 35 -46 35 -55 0 -9 6
-28 14 -43 8 -15 20 -53 27 -85 7 -32 18 -61 23 -65 6 -4 37 -8 69 -8 54 0 57
-1 45 -19 -16 -26 -42 -32 -67 -15 -28 20 -34 4 -26 -72 6 -57 4 -70 -20 -121
-59 -123 -97 -221 -111 -283 -9 -36 -19 -69 -24 -75 -4 -5 -11 -35 -15 -65 -4
-30 -13 -68 -20 -85 -42 -93 -41 -731 1 -800 6 -11 15 -51 18 -89 9 -92 39
-197 77 -273 30 -59 31 -65 20 -109 -7 -25 -14 -83 -18 -127 -3 -45 -12 -97
-19 -116 -8 -18 -14 -57 -14 -85 0 -28 -8 -82 -19 -121 -19 -70 -41 -192 -65
-355 -6 -47 -17 -95 -24 -107 -7 -13 -15 -60 -19 -105 -3 -46 -11 -90 -19 -98
-7 -8 -15 -49 -18 -90 -6 -72 -43 -256 -71 -350 -7 -25 -16 -74 -20 -110 -4
-36 -12 -72 -19 -80 -8 -8 -16 -41 -20 -73 -3 -32 -13 -74 -21 -93 -8 -20 -18
-64 -21 -100 -4 -35 -13 -69 -20 -75 -8 -6 -14 -30 -14 -53 0 -22 -11 -63 -23
-91 -13 -27 -27 -70 -31 -95 -4 -24 -11 -49 -16 -55 -7 -9 -23 -61 -61 -210
-6 -22 -16 -47 -24 -55 -7 -8 -16 -40 -20 -70 -4 -30 -13 -62 -20 -70 -7 -8
-19 -44 -25 -80 -6 -36 -16 -70 -20 -75 -5 -6 -14 -33 -21 -60 -7 -27 -18 -61
-26 -75 -7 -14 -13 -32 -13 -40 0 -8 -8 -31 -19 -50 -10 -19 -22 -51 -26 -70
-4 -19 -13 -44 -20 -56 -8 -12 -17 -38 -21 -60 -6 -35 -35 -102 -70 -164 -26
-48 -64 -137 -64 -153 0 -8 -7 -28 -15 -44 -8 -15 -28 -58 -45 -95 -18 -37
-36 -70 -41 -73 -5 -4 -9 -17 -9 -30 0 -13 -16 -52 -35 -87 -19 -34 -45 -83
-58 -108 -13 -25 -28 -54 -34 -65 -6 -11 -22 -41 -34 -67 -13 -27 -27 -48 -30
-48 -4 0 -25 -38 -48 -85 -23 -46 -46 -87 -51 -90 -6 -3 -10 -13 -10 -22 0
-18 -60 -113 -72 -113 -4 0 -8 -13 -8 -29 0 -19 -8 -35 -20 -44 -11 -8 -32
-36 -46 -63 -14 -26 -43 -69 -65 -95 -21 -26 -39 -52 -39 -59 0 -6 -20 -36
-45 -67 -25 -30 -45 -60 -45 -65 0 -6 -15 -29 -34 -52 -18 -23 -40 -55 -50
-73 -9 -18 -32 -44 -51 -59 -19 -14 -35 -33 -35 -40 0 -8 -4 -14 -8 -14 -5 0
-30 -29 -57 -65 -26 -36 -62 -77 -79 -91 -17 -14 -58 -52 -91 -83 -33 -31 -68
-60 -78 -64 -9 -3 -17 -11 -17 -16 0 -6 -12 -17 -27 -25 l-28 -15 38 -1 c28 0
45 7 65 26 15 14 41 32 59 40 17 7 51 34 75 60 l44 46 32 -27 c29 -24 32 -32
32 -85 0 -38 -5 -62 -14 -69 -8 -7 -17 -30 -21 -51 -4 -21 -13 -44 -21 -51 -8
-6 -14 -24 -14 -39 0 -15 -8 -38 -19 -51 -10 -13 -23 -41 -30 -61 -7 -20 -18
-42 -26 -48 -7 -6 -17 -26 -21 -43 -8 -36 -52 -106 -121 -194 -18 -23 -33 -46
-33 -51 0 -6 -20 -31 -45 -58 -25 -26 -45 -51 -45 -55 0 -5 -9 -19 -21 -31
-33 -37 -109 -136 -109 -143 0 -3 -18 -30 -40 -60 -24 -33 -44 -74 -51 -104
-5 -27 -24 -71 -41 -98 -21 -33 -33 -66 -37 -104 -5 -47 -11 -61 -37 -82 -26
-22 -43 -26 -129 -33 -61 -4 -105 -12 -113 -21 -7 -7 -29 -13 -47 -13 -19 0
-37 -4 -40 -10 -8 -13 106 -13 155 -1 19 5 69 15 110 22 41 7 79 18 83 25 4 8
24 21 43 30 45 22 52 40 25 65 -22 21 -21 24 11 72 47 67 165 10 248 -119 14
-21 31 -48 38 -59 23 -37 42 -84 42 -105 0 -11 4 -20 9 -20 18 0 34 -144 28
-266 -4 -104 -8 -128 -32 -178 -33 -69 -108 -158 -144 -169 -14 -5 -48 -18
-76 -29 -51 -21 -82 -27 -280 -53 -358 -46 -675 11 -782 143 -84 102 -104 199
-84 399 25 244 148 440 293 467 52 10 71 -18 62 -95 -6 -55 -6 -56 23 -66 39
-14 67 0 53 26 -5 11 -13 44 -16 74 -4 31 -12 58 -20 61 -14 5 -48 78 -64 137
-6 21 -22 51 -35 67 -14 17 -25 39 -25 51 0 11 -16 36 -35 55 -19 20 -35 40
-35 46 0 5 -4 10 -10 10 -5 0 -16 12 -24 28 -8 15 -33 46 -55 69 -22 23 -42
51 -45 61 -4 10 -17 24 -31 30 -15 7 -23 17 -19 26 3 8 -12 38 -34 68 -36 47
-88 138 -146 253 -11 22 -28 51 -38 64 -10 13 -18 32 -18 43 0 10 -6 29 -14
41 -23 36 -56 169 -56 226 0 38 -4 51 -12 49 -30 -10 -31 -163 -2 -193 39 -38
42 -251 5 -356 -24 -70 -73 -142 -119 -176 -20 -15 -49 -38 -64 -51 -27 -24
-29 -25 -175 -20 -159 6 -245 25 -264 59 -5 11 -18 19 -29 19 -11 0 -26 10
-35 23 -8 13 -33 36 -54 52 -23 17 -47 47 -56 67 -8 21 -19 38 -25 38 -5 0
-12 11 -16 24 -3 14 -14 32 -25 42 -33 30 -49 108 -49 243 0 104 4 135 21 181
36 92 60 141 74 146 7 3 27 25 44 50 27 36 38 44 64 44 36 0 124 -61 143 -99
6 -12 25 -37 42 -54 17 -18 33 -48 37 -69 4 -21 13 -42 21 -49 19 -16 18 -44
-7 -121 -26 -86 -39 -103 -70 -94 -49 13 -81 51 -90 104 -4 28 -16 63 -25 77
-16 25 -19 26 -25 9 -17 -44 -9 -104 21 -157 54 -94 70 -104 146 -92 40 6 46
11 74 61 31 53 32 57 28 162 -3 106 -4 109 -40 163 -21 30 -38 59 -38 65 0 6
-13 26 -30 44 -16 18 -30 39 -30 45 0 6 -14 19 -31 29 -17 10 -35 30 -42 44
-6 15 -37 53 -69 84 -32 32 -58 62 -58 68 0 6 -11 16 -25 22 -14 6 -25 19 -25
29 0 17 -52 77 -82 95 -8 5 -28 29 -46 54 -18 25 -61 68 -96 95 -34 27 -74 64
-87 82 -13 18 -35 36 -49 40 -28 7 -115 73 -180 135 -24 24 -80 71 -125 105
-113 88 -249 214 -376 349 -31 32 -68 68 -83 79 -14 11 -31 34 -37 51 -10 25
-16 30 -35 26 -18 -3 -26 2 -33 19 -5 13 -29 42 -53 65 -25 22 -47 45 -49 50
-2 6 -25 26 -50 46 -25 19 -63 54 -85 78 -21 24 -87 91 -146 149 -59 58 -113
112 -120 120 -7 7 -43 45 -81 83 -37 38 -67 76 -67 83 0 8 -10 15 -21 17 -12
2 -25 10 -29 18 -19 40 -44 85 -56 99 -67 81 -119 152 -134 181 -10 19 -41 60
-69 92 -28 31 -51 60 -51 65 0 5 -10 20 -22 33 -24 24 -48 64 -70 113 -7 15
-19 29 -28 32 -15 6 -60 69 -60 84 0 5 -20 35 -45 67 -25 31 -45 62 -45 68 0
6 -18 38 -40 71 -22 33 -40 65 -40 71 0 6 -6 17 -14 23 -8 7 -18 27 -22 44 -3
18 -11 38 -16 45 -14 16 -43 66 -69 117 -11 22 -27 51 -35 65 -7 14 -14 32
-14 41 0 9 -9 24 -20 34 -11 10 -20 30 -20 45 0 16 -6 30 -14 33 -17 7 -51 72
-60 117 -3 19 -15 43 -25 55 -10 11 -26 45 -35 76 -8 31 -24 67 -35 81 -11 13
-23 38 -27 54 -4 16 -18 49 -31 73 -12 24 -23 50 -23 58 0 7 -6 24 -14 36 -8
12 -17 40 -21 62 -4 21 -15 55 -25 75 -10 20 -22 54 -25 75 -4 22 -12 48 -17
57 -5 10 -13 44 -19 75 -6 32 -15 60 -19 63 -5 3 -14 37 -20 75 -6 39 -17 84
-25 101 -8 16 -17 50 -21 75 -4 24 -12 51 -19 59 -7 8 -16 42 -20 75 -4 33
-15 86 -26 117 -10 32 -19 70 -19 85 0 16 -8 44 -18 63 -11 19 -22 66 -25 104
-4 37 -11 74 -17 81 -6 7 -15 41 -21 76 -6 35 -17 78 -24 94 -7 17 -16 76 -20
133 -4 57 -13 115 -21 130 -16 31 -19 304 -4 387 5 28 14 88 20 135 6 46 17
105 25 130 8 25 21 72 29 105 30 120 49 180 62 200 8 11 14 28 14 38 0 10 11
42 24 70 13 29 26 59 30 67 3 8 20 40 36 70 17 30 30 62 30 72 0 9 9 23 19 30
10 7 26 30 34 51 9 20 21 37 26 37 6 0 11 6 11 13 0 19 22 44 191 217 80 83
150 150 156 150 6 0 13 6 16 13 3 7 22 24 43 38 210 140 237 149 436 149 103
0 159 -4 185 -14 21 -8 60 -17 87 -20 27 -3 60 -13 72 -21 13 -8 31 -15 41
-15 32 0 151 -65 174 -94 12 -16 37 -35 56 -42 18 -8 33 -19 33 -24 0 -6 6
-10 13 -10 6 0 30 -17 52 -39 141 -137 192 -189 205 -210 8 -12 26 -36 40 -51
52 -59 70 -89 70 -113 0 -13 9 -36 20 -50 11 -14 20 -29 20 -33 0 -4 9 -27 20
-51 11 -24 29 -62 40 -86 11 -24 20 -53 20 -66 0 -12 9 -39 20 -61 11 -22 20
-50 20 -62 0 -13 11 -54 25 -93 13 -38 25 -82 25 -97 0 -15 5 -39 11 -55 39
-102 39 -646 -1 -778 -5 -16 -16 -52 -25 -80 -9 -27 -23 -76 -30 -108 -7 -32
-20 -66 -28 -75 -8 -10 -17 -33 -21 -52 -3 -21 -24 -56 -49 -85 -24 -28 -46
-58 -50 -67 -3 -10 -27 -32 -52 -50 -25 -17 -45 -35 -45 -40 0 -4 -7 -8 -16
-8 -8 0 -32 -9 -52 -20 -64 -33 -144 -52 -232 -53 -78 -2 -92 1 -169 35 -65
29 -88 35 -103 27 -16 -9 -18 -7 -12 15 5 21 2 27 -20 36 -15 5 -36 26 -47 45
-12 19 -25 35 -29 35 -7 0 -34 33 -78 97 -60 87 -140 244 -164 323 -16 51 -21
104 -25 251 -5 173 -4 191 16 250 12 35 30 75 40 89 10 14 22 37 26 50 18 61
106 170 159 197 32 16 161 20 180 4 6 -5 26 -12 44 -16 18 -3 37 -15 42 -26 6
-10 17 -19 25 -19 37 0 76 -38 109 -105 44 -89 70 -150 86 -197 6 -21 15 -38
20 -38 28 0 17 153 -14 190 -21 25 -56 90 -56 104 0 7 -26 35 -57 62 -31 27
-75 66 -98 87 -37 32 -49 37 -92 37 -35 0 -58 6 -76 20 -31 25 -118 28 -141 5
-8 -9 -28 -15 -43 -15 -100 2 -229 -30 -248 -60 -17 -27 62 -14 91 14 18 18
76 21 105 6 20 -11 26 -45 9 -55 -35 -21 -143 -226 -156 -295 -12 -60 -76
-160 -103 -160 -27 0 -144 -151 -156 -203 -4 -15 -11 -30 -16 -33 -5 -3 -9
-16 -9 -28 0 -13 -11 -58 -25 -100 -15 -46 -25 -101 -26 -139 0 -34 -4 -96 -8
-137 -13 -128 19 -446 59 -585 6 -22 17 -65 24 -95 14 -60 23 -92 56 -190 12
-36 28 -89 35 -119 8 -30 27 -75 43 -101 16 -26 32 -64 36 -86 5 -21 16 -57
26 -79 10 -22 21 -55 25 -72 3 -18 11 -33 16 -33 12 0 39 -54 39 -78 0 -22 18
-60 70 -152 21 -36 40 -77 44 -93 4 -15 15 -36 26 -47 11 -11 20 -33 20 -49 0
-16 6 -31 14 -34 8 -3 17 -19 21 -36 3 -16 13 -35 20 -41 8 -7 17 -27 21 -46
3 -19 15 -39 25 -45 11 -5 19 -16 19 -23 0 -7 9 -24 19 -38 11 -13 22 -40 26
-60 4 -20 13 -39 20 -42 8 -3 17 -21 20 -40 4 -19 12 -37 19 -39 6 -3 24 -31
40 -63 15 -33 33 -68 39 -79 6 -11 17 -32 24 -46 7 -15 20 -32 28 -39 8 -7 15
-23 15 -36 0 -13 6 -27 14 -31 7 -4 19 -25 25 -45 7 -21 17 -38 22 -38 6 0 17
-17 26 -37 8 -21 29 -60 47 -88 53 -84 56 -89 65 -112 6 -11 15 -24 21 -28 6
-3 27 -39 46 -78 20 -40 43 -76 50 -80 8 -4 14 -14 14 -22 0 -7 11 -27 25 -43
14 -17 25 -35 25 -40 0 -6 9 -14 20 -17 11 -3 20 -14 20 -24 0 -10 9 -26 20
-36 11 -10 20 -26 20 -36 0 -10 9 -23 20 -29 11 -6 20 -16 20 -21 0 -6 11 -24
25 -41 14 -16 25 -36 25 -44 0 -8 5 -14 12 -14 12 0 68 -59 68 -72 0 -4 8 -17
18 -27 9 -11 40 -51 67 -90 28 -39 55 -71 61 -71 7 0 19 -17 27 -37 14 -34 14
-40 -1 -56 -14 -16 -14 -20 7 -45 12 -15 24 -34 27 -42 3 -9 13 -20 23 -25 27
-14 185 -152 245 -212 67 -68 74 -76 89 -91 75 -83 201 -203 305 -291 29 -24
52 -50 52 -58 0 -7 6 -13 14 -13 7 0 44 -28 80 -62 64 -59 89 -77 161 -112 17
-8 60 -44 97 -79 36 -36 91 -80 122 -97 31 -18 61 -41 67 -51 5 -10 16 -19 24
-19 7 0 17 -9 20 -20 3 -11 15 -20 25 -20 10 0 38 -18 61 -40 24 -22 50 -42
59 -45 8 -3 23 -21 32 -40 37 -75 116 -183 175 -241 35 -34 63 -66 63 -71 0
-6 7 -16 15 -23 7 -6 17 -31 21 -55 6 -42 8 -44 34 -38 24 4 34 -1 61 -32 18
-20 43 -41 56 -46 13 -5 23 -14 23 -21 0 -12 81 -59 123 -72 43 -13 -9 51 -65
80 -37 19 -52 31 -81 64 -12 13 -42 47 -68 75 -64 71 -139 161 -139 168 0 2
-14 20 -31 38 -16 18 -47 57 -67 88 -20 30 -54 74 -74 96 -21 22 -38 45 -38
51 0 6 -18 30 -40 55 -22 24 -40 54 -40 66 0 12 -11 32 -24 45 -24 24 -69 88
-97 140 -8 16 -19 33 -25 36 -5 4 -17 23 -26 42 -10 19 -31 58 -47 85 -17 28
-30 57 -31 65 0 8 -20 44 -45 80 -25 36 -45 70 -45 75 0 6 -15 35 -33 65 -19
31 -37 69 -41 84 -4 16 -16 41 -27 54 -10 14 -19 29 -19 35 0 5 -18 45 -40 89
-22 44 -40 85 -40 91 0 6 -18 41 -40 78 -22 37 -40 76 -40 86 0 10 -7 32 -16
48 -9 17 -27 62 -41 100 -14 39 -35 86 -48 105 -13 19 -26 55 -30 80 -4 24
-13 54 -21 65 -7 11 -16 38 -19 60 -4 22 -14 51 -23 65 -34 52 -52 95 -52 122
0 30 -59 217 -84 263 -9 17 -16 45 -16 64 0 33 -84 281 -99 291 -4 3 -11 33
-14 66 -4 34 -15 86 -26 115 -30 86 -59 190 -66 239 -3 25 -13 65 -20 90 -8
25 -17 70 -20 100 -4 30 -13 62 -20 70 -7 8 -17 47 -23 85 -5 39 -22 124 -37
190 -14 66 -31 152 -36 192 -5 39 -15 86 -23 105 -7 18 -17 60 -20 93 -4 33
-15 105 -26 160 -10 55 -22 125 -26 155 -3 30 -12 64 -19 75 -7 11 -15 50 -18
88 -4 37 -13 82 -21 100 -8 17 -17 78 -20 134 -3 62 -11 114 -20 132 -9 16
-20 81 -26 145 -11 119 -5 173 25 220 7 12 17 44 21 71 3 28 15 71 25 97 10
26 21 78 25 115 4 37 12 74 18 82 7 10 11 96 11 270 -1 278 -13 387 -61 529
-13 40 -24 81 -24 92 0 11 -9 37 -20 57 -11 21 -20 46 -20 56 0 20 -28 93 -68
175 -22 46 -25 66 -24 145 0 51 5 110 11 132 29 115 45 173 57 200 8 17 20 47
28 68 8 20 19 37 24 37 5 0 12 9 15 19 5 20 64 51 96 51 9 0 35 9 56 20 22 12
63 26 90 32 28 6 55 14 60 19 10 8 35 14 227 57 48 11 109 27 135 35 26 9 73
20 103 26 30 5 67 14 82 20 15 6 58 13 95 17 38 4 75 10 84 15 9 4 53 13 99
18 45 6 88 15 94 20 24 20 259 58 426 69 63 4 124 12 135 19 11 6 81 14 155
18 74 4 141 12 149 18 7 6 50 14 95 18 141 11 1234 9 1361 -2z m3530 -222 c67
-4 93 -14 100 -38 4 -13 19 -21 45 -25 25 -4 53 -20 80 -45 23 -22 46 -39 51
-39 9 0 186 -176 294 -292 65 -70 115 -134 115 -147 0 -6 5 -11 10 -11 6 0 18
-17 28 -37 9 -21 22 -44 29 -51 7 -7 15 -28 19 -47 3 -18 12 -36 19 -39 17 -6
65 -112 65 -142 0 -13 4 -24 8 -24 9 0 42 -64 42 -81 0 -6 7 -25 14 -42 8 -18
20 -66 25 -107 6 -41 17 -95 26 -119 33 -94 54 -412 47 -706 -2 -71 0 -138 3
-147 5 -14 2 -18 -13 -18 -17 0 -21 -9 -26 -50 -3 -27 -9 -72 -12 -100 -3 -27
-9 -50 -14 -50 -4 0 -13 -35 -19 -77 -6 -43 -17 -86 -25 -98 -7 -11 -15 -48
-18 -81 -3 -34 -13 -77 -21 -95 -8 -19 -18 -54 -21 -79 -4 -25 -13 -57 -20
-72 -8 -14 -17 -54 -21 -87 -4 -34 -13 -68 -21 -75 -7 -8 -17 -40 -20 -73 -4
-32 -15 -77 -25 -100 -11 -23 -19 -52 -19 -65 -1 -13 -8 -41 -16 -63 -9 -22
-20 -62 -26 -89 -5 -28 -16 -59 -24 -70 -8 -11 -14 -31 -14 -44 0 -12 -11 -45
-25 -72 -14 -27 -25 -65 -25 -84 0 -19 -6 -39 -13 -43 -7 -4 -28 -46 -46 -93
-17 -47 -48 -116 -66 -155 -19 -38 -37 -83 -41 -98 -4 -16 -12 -31 -19 -34 -7
-2 -16 -20 -20 -39 -3 -19 -12 -37 -19 -40 -8 -3 -16 -18 -19 -33 -3 -16 -13
-36 -22 -44 -8 -9 -15 -29 -15 -45 0 -17 -10 -40 -25 -56 -14 -15 -25 -33 -25
-40 0 -8 -6 -18 -13 -24 -7 -6 -30 -46 -52 -89 -21 -43 -41 -80 -44 -83 -4 -3
-12 -16 -19 -30 -7 -14 -24 -43 -37 -65 -14 -22 -33 -56 -42 -75 -10 -19 -21
-39 -26 -45 -26 -34 -144 -210 -168 -250 -13 -22 -48 -72 -79 -110 -30 -39
-59 -77 -65 -86 -28 -44 -53 -78 -87 -114 -21 -21 -38 -44 -38 -50 0 -10 -25
-46 -117 -166 -15 -21 -40 -44 -55 -54 -16 -9 -28 -22 -28 -30 0 -13 -89 -113
-167 -189 -18 -17 -54 -53 -80 -80 -80 -81 -236 -235 -345 -341 -57 -55 -121
-121 -143 -147 -22 -26 -46 -48 -53 -48 -7 0 -15 -8 -19 -17 -6 -18 -183 -193
-194 -193 -6 0 -37 -24 -79 -63 -14 -13 -50 -43 -80 -67 -30 -24 -78 -66 -106
-94 -28 -28 -83 -76 -123 -106 -39 -30 -81 -65 -93 -77 -12 -13 -27 -23 -34
-23 -21 0 -147 -119 -274 -259 -36 -40 -91 -99 -122 -132 -32 -34 -58 -67 -58
-74 0 -8 -6 -18 -14 -22 -19 -12 -118 -131 -150 -180 -14 -24 -30 -43 -35 -43
-5 0 -12 -14 -16 -30 -4 -17 -13 -36 -20 -44 -20 -20 -45 -137 -34 -158 5 -9
9 -41 9 -71 0 -43 5 -61 28 -90 23 -30 33 -36 66 -37 54 0 130 44 144 84 18
55 23 105 12 126 -18 33 -27 23 -33 -37 -5 -48 -11 -63 -37 -86 -36 -32 -87
-36 -119 -10 -46 38 -48 165 -3 244 54 95 70 117 112 158 99 96 108 94 229
-36 12 -13 21 -26 21 -31 0 -4 8 -23 19 -42 10 -19 24 -66 31 -105 7 -38 16
-83 21 -99 14 -44 11 -114 -6 -145 -8 -16 -18 -48 -21 -72 -4 -24 -16 -62 -28
-84 -51 -102 -189 -248 -246 -262 -14 -3 -36 -14 -50 -24 -14 -9 -52 -20 -85
-23 -32 -4 -67 -14 -77 -23 -13 -12 -28 -14 -65 -9 -77 11 -150 35 -189 61
-65 44 -140 159 -155 238 -5 28 -14 54 -20 58 -13 8 -14 89 -1 98 14 10 32 71
32 113 0 24 4 37 10 33 11 -7 15 25 11 100 -2 28 -7 52 -12 53 -5 2 -9 22 -9
44 0 48 19 78 138 213 20 23 35 48 56 92 15 34 27 51 62 86 11 12 35 46 54 75
18 28 37 52 41 52 4 0 10 11 13 24 8 31 127 125 228 181 10 5 18 13 18 17 0
12 62 68 76 68 8 0 14 4 14 8 0 5 21 24 48 42 26 18 56 42 67 52 51 49 110 98
117 98 9 0 52 36 118 100 26 25 75 70 110 100 92 81 137 126 155 154 10 14 21
26 26 26 9 0 109 100 109 108 0 3 10 15 23 27 12 12 36 39 54 61 18 21 54 64
82 94 28 30 50 59 51 63 0 5 14 23 32 40 17 17 38 43 47 58 20 32 111 138 169
195 23 23 42 47 42 53 0 6 9 15 20 21 11 6 20 15 20 21 0 11 98 132 112 137 5
2 15 19 22 37 8 19 28 41 45 50 17 8 31 23 31 33 0 10 18 38 40 62 22 24 40
47 40 51 0 3 20 28 45 55 45 50 57 87 30 98 -30 11 -10 80 33 120 12 10 24 32
28 50 3 17 21 49 39 71 18 22 35 50 39 62 4 11 13 27 21 33 8 7 15 19 15 27 0
8 11 28 25 45 14 16 25 36 25 43 0 8 8 22 19 32 10 10 21 32 25 48 4 17 13 37
21 45 11 13 83 152 114 220 6 14 24 45 40 70 15 25 31 62 35 81 3 20 19 48 35
63 16 15 37 48 46 72 9 24 21 44 26 44 5 0 9 9 9 19 0 18 37 104 61 141 5 8
14 26 20 40 6 14 19 43 30 65 10 22 19 45 19 51 0 6 8 22 18 35 9 13 28 58 41
99 13 41 41 112 62 156 21 45 43 104 50 130 6 27 20 67 30 90 11 22 19 51 19
65 0 13 7 35 16 47 9 13 29 71 46 130 16 59 36 129 44 157 8 27 14 77 14 110
0 33 7 85 15 115 9 34 18 127 21 240 6 159 4 194 -11 250 -10 36 -21 96 -26
133 -4 38 -12 74 -17 80 -5 7 -14 31 -20 53 -7 23 -19 47 -27 54 -8 7 -15 17
-15 23 0 28 -77 122 -124 152 -65 41 -81 66 -95 139 -6 31 -17 67 -26 79 -8
12 -15 29 -15 38 0 9 -13 29 -28 46 -16 16 -40 51 -53 77 l-24 48 23 18 c12
10 22 27 22 38 0 16 -9 20 -47 24 -27 3 -66 13 -88 23 -31 15 -63 19 -150 20
-118 0 -136 -6 -204 -72 -13 -13 -30 -23 -37 -23 -7 0 -15 -8 -19 -19 -3 -10
-13 -28 -23 -39 -9 -12 -26 -33 -37 -47 -11 -15 -27 -34 -35 -44 -26 -29 -58
-141 -64 -226 -4 -52 -3 -73 3 -60 5 11 10 35 10 53 1 21 6 32 15 32 8 0 17
14 21 33 10 45 55 138 70 143 7 3 15 18 19 34 4 22 21 39 63 67 32 21 63 45
70 54 18 24 59 37 135 43 63 5 68 3 109 -27 23 -18 58 -43 77 -57 45 -32 97
-106 107 -151 4 -19 16 -44 25 -57 10 -12 21 -42 25 -65 3 -23 13 -64 22 -91
20 -63 13 -271 -11 -328 -9 -21 -16 -53 -16 -72 0 -19 -6 -41 -13 -48 -8 -7
-22 -37 -31 -66 -10 -28 -22 -54 -27 -57 -5 -4 -9 -14 -9 -23 0 -9 -23 -49
-50 -87 -28 -39 -58 -81 -67 -94 -9 -13 -33 -40 -52 -60 -20 -21 -41 -46 -47
-57 -6 -10 -31 -30 -57 -44 -25 -14 -66 -37 -91 -51 -60 -36 -228 -49 -327
-26 -35 8 -77 15 -94 14 -23 -2 -32 4 -42 25 -13 25 -83 99 -137 145 -15 13
-26 32 -26 47 0 14 -8 33 -17 43 -28 29 -49 79 -88 213 -20 69 -41 139 -47
155 -6 17 -14 62 -18 100 -5 39 -13 115 -19 170 -7 55 -9 136 -6 180 11 133
43 372 53 392 5 10 13 41 17 68 3 28 12 59 19 70 7 11 16 40 20 65 3 25 15 59
26 75 11 17 20 39 20 49 0 11 9 39 20 63 41 88 58 129 65 150 10 36 56 113 66
113 5 0 12 8 16 18 6 15 28 47 83 116 49 62 169 166 191 166 11 0 19 6 19 13
0 19 35 49 130 112 47 31 88 62 93 70 5 10 24 15 51 15 24 0 56 6 72 14 16 8
57 19 91 25 35 5 71 15 80 20 16 10 171 9 328 -2z m-2600 -6949 c6 -13 20 -27
33 -33 34 -15 27 -64 -13 -85 -16 -8 -32 -18 -33 -23 -3 -6 -67 -37 -78 -37
-11 0 10 89 27 112 10 15 19 32 19 38 0 16 19 50 28 50 4 0 12 -10 17 -22z
m-1070 -3388 c10 -22 26 -47 36 -56 11 -10 19 -29 19 -43 l0 -26 -20 25 -20
25 0 -37 c0 -25 4 -37 13 -35 9 1 13 -32 17 -128 4 -97 10 -136 22 -155 9 -14
19 -43 23 -65 7 -40 37 -109 78 -177 66 -110 87 -149 87 -158 0 -6 7 -13 15
-17 9 -3 22 -20 30 -37 37 -79 95 -172 136 -215 24 -27 52 -58 61 -70 10 -11
24 -21 31 -21 8 0 19 -11 25 -24 6 -13 39 -48 73 -77 35 -30 85 -75 112 -101
26 -27 51 -48 56 -48 4 0 27 -21 52 -46 24 -25 63 -64 85 -87 55 -55 110 -128
119 -158 4 -13 14 -31 21 -40 8 -8 18 -35 23 -60 5 -24 17 -64 26 -89 9 -26
19 -91 22 -152 7 -122 -3 -149 -63 -174 -19 -8 -34 -21 -34 -29 0 -11 -12 -15
-49 -15 -28 0 -55 -6 -63 -14 -8 -7 -50 -24 -93 -36 -44 -13 -104 -34 -133
-46 -29 -13 -69 -26 -90 -29 -20 -4 -66 -13 -102 -20 -253 -55 -411 -62 -1271
-59 -500 2 -601 5 -625 17 -16 8 -66 18 -112 21 -46 4 -104 13 -130 21 -26 7
-66 16 -88 19 -23 3 -54 13 -70 21 -16 8 -36 15 -45 15 -20 0 -192 61 -199 70
-3 4 -27 14 -55 23 -60 19 -84 7 -45 -24 14 -10 30 -23 35 -28 6 -4 27 -11 47
-15 20 -3 41 -13 47 -20 7 -8 35 -20 64 -27 29 -6 61 -18 72 -25 11 -8 35 -14
55 -14 19 0 58 -12 85 -25 28 -14 68 -25 91 -25 23 0 57 -6 76 -14 18 -8 85
-19 148 -25 63 -6 133 -16 155 -21 58 -15 1359 -14 1405 0 19 6 79 15 133 20
54 5 121 16 150 24 29 8 82 19 119 24 37 6 75 17 83 26 9 9 32 16 52 16 19 0
49 6 66 14 18 7 48 20 67 27 19 7 41 19 48 26 7 7 29 15 50 19 20 4 51 17 67
29 49 37 68 39 87 8 16 -27 16 -27 -35 -75 -28 -26 -70 -54 -96 -63 -24 -8
-55 -24 -66 -35 -28 -26 -94 -50 -220 -79 -55 -13 -122 -30 -150 -38 -27 -7
-86 -17 -130 -20 -44 -3 -87 -12 -95 -19 -9 -8 -64 -17 -135 -24 -66 -5 -169
-15 -230 -21 -178 -18 -898 -6 -1130 18 -105 11 -199 25 -210 31 -12 6 -69 15
-128 20 -73 7 -112 15 -123 26 -8 9 -24 16 -35 16 -10 0 -45 9 -76 19 -32 11
-75 22 -95 25 -20 4 -67 22 -105 40 -37 19 -77 37 -88 40 -29 9 -110 86 -129
123 -18 35 -12 63 13 63 11 0 7 6 -11 17 -17 11 -36 39 -49 71 l-22 54 31 157
c35 172 69 257 133 325 21 23 60 65 88 95 28 30 51 57 51 61 0 10 80 60 96 60
8 0 14 5 14 12 0 15 80 98 95 98 6 0 22 12 37 28 14 15 32 32 39 38 24 20 107
117 144 170 11 15 32 42 46 59 15 16 38 53 53 80 32 60 87 148 108 172 8 10
20 33 28 51 7 17 16 32 20 32 4 0 12 17 18 39 7 21 19 44 27 51 8 7 17 28 21
48 4 19 13 47 20 61 8 14 14 31 14 38 0 7 9 28 19 46 19 33 23 70 35 319 2 46
7 62 26 78 28 24 25 24 53 6 23 -15 174 -46 217 -44 14 0 62 -9 108 -21 79
-21 85 -22 145 -7 34 8 123 21 197 27 126 11 189 26 315 73 53 20 50 21 70
-24z"/>
<path d="M7280 12590 c-80 -4 -194 -12 -254 -18 -73 -8 -566 -12 -1509 -12
-771 0 -1405 -4 -1409 -8 -15 -15 630 -21 1887 -18 1176 2 1211 3 1239 21 25
17 52 20 168 23 76 3 138 8 138 13 0 10 -33 9 -260 -1z"/>
<path d="M5730 4808 c-110 -19 -226 -28 -370 -28 -85 0 -161 -4 -168 -8 -8 -6
6 -16 41 -30 44 -19 72 -22 172 -22 82 0 134 5 164 16 25 8 74 18 110 21 51 5
71 11 88 29 27 29 21 32 -37 22z"/>
</g>
</svg>
